<svg width="564" height="346" viewBox="0 0 564 346" fill="none" xmlns="http://www.w3.org/2000/svg">
  <!-- Background -->
  <rect width="564" height="346" fill="white" rx="8"/>
  
  <!-- Header -->
  <rect x="20" y="20" width="524" height="50" fill="#F8F9FE" rx="4"/>
  <circle cx="40" cy="45" r="12" fill="#4640DE"/>
  <rect x="65" y="38" width="100" height="8" fill="#25324B" rx="4"/>
  <rect x="65" y="50" width="150" height="6" fill="#7C8493" rx="3"/>
  
  <!-- Stats Cards -->
  <rect x="20" y="90" width="160" height="80" fill="#4640DE" rx="8"/>
  <text x="35" y="120" font-family="Arial" font-size="32" font-weight="bold" fill="white">76</text>
  <text x="35" y="145" font-family="Arial" font-size="12" fill="white">New candidates</text>
  
  <rect x="195" y="90" width="160" height="80" fill="#26A4FF" rx="8"/>
  <text x="210" y="120" font-family="Arial" font-size="32" font-weight="bold" fill="white">24</text>
  <text x="210" y="145" font-family="Arial" font-size="12" fill="white">Messages</text>
  
  <rect x="370" y="90" width="174" height="80" fill="#F8F9FE" rx="8"/>
  <text x="385" y="115" font-family="Arial" font-size="14" fill="#25324B">Job Open</text>
  <text x="385" y="145" font-family="Arial" font-size="32" font-weight="bold" fill="#25324B">12</text>
  
  <!-- Chart Area -->
  <rect x="20" y="190" width="340" height="136" fill="#F8F9FE" rx="8"/>
  <text x="35" y="215" font-family="Arial" font-size="14" font-weight="bold" fill="#25324B">Job statistics</text>
  
  <!-- Bar Chart -->
  <rect x="40" y="260" width="30" height="40" fill="#FFA500" rx="2"/>
  <rect x="40" y="240" width="30" height="20" fill="#4640DE" rx="2"/>
  
  <rect x="85" y="250" width="30" height="50" fill="#FFA500" rx="2"/>
  <rect x="85" y="230" width="30" height="20" fill="#4640DE" rx="2"/>
  
  <rect x="130" y="245" width="30" height="55" fill="#FFA500" rx="2"/>
  <rect x="130" y="235" width="30" height="10" fill="#4640DE" rx="2"/>
  
  <rect x="175" y="255" width="30" height="45" fill="#FFA500" rx="2"/>
  <rect x="175" y="225" width="30" height="30" fill="#4640DE" rx="2"/>
  
  <rect x="220" y="260" width="30" height="40" fill="#FFA500" rx="2"/>
  <rect x="220" y="240" width="30" height="20" fill="#4640DE" rx="2"/>
  
  <rect x="265" y="270" width="30" height="30" fill="#FFA500" rx="2"/>
  <rect x="265" y="250" width="30" height="20" fill="#4640DE" rx="2"/>
  
  <rect x="310" y="265" width="30" height="35" fill="#FFA500" rx="2"/>
  <rect x="310" y="245" width="30" height="20" fill="#4640DE" rx="2"/>
  
  <!-- Stats Cards Right -->
  <rect x="370" y="190" width="174" height="60" fill="#F8F9FE" rx="8"/>
  <text x="385" y="215" font-family="Arial" font-size="14" fill="#25324B">Job Views</text>
  <text x="385" y="240" font-family="Arial" font-size="24" font-weight="bold" fill="#25324B">2,342</text>
  
  <rect x="370" y="266" width="174" height="60" fill="#F8F9FE" rx="8"/>
  <text x="385" y="291" font-family="Arial" font-size="14" fill="#25324B">Applicants</text>
  <text x="385" y="316" font-family="Arial" font-size="24" font-weight="bold" fill="#25324B">67</text>
</svg>
